Coordinates
version=1
nRows=24
nColumns=19
inDegrees=yes

Units are S.I. units (second, meters, Newtons, ...)
If the header above contains a line with 'inDegrees', this indicates whether rotational values are in degrees (yes) or radians (no).

endheader
time	pelvis_to_ground_rx	pelvis_to_ground_ry	pelvis_to_ground_rz	pelvis_to_ground_tx	pelvis_to_ground_ty	pelvis_to_ground_tz	left_hip_abduction	left_hip_rotation	left_hip_flexion	left_knee_flexion	left_ankle_flexion	left_subtalar_angle	right_hip_abduction	right_hip_rotation	right_hip_flexion	right_knee_flexion	right_ankle_flexion	right_subtalar_angle
      1.99000000	     84.33696018	      2.96820414	     -8.41636343	      0.36564609	     -0.77871014	      0.73275290	     -5.37341752	     11.74263909	     41.71004073	    -72.21880605	      1.58923177	    -11.27571842	     11.79323363	     10.37626523	      5.98852856	     -8.34019996	      0.70513394	     -2.44467215
      2.00000000	     84.29719167	      2.34457412	     -8.34766900	      0.37620913	     -0.77862586	      0.73202247	     -5.60668335	     11.27504105	     43.18134878	    -70.73399010	      1.77963791	    -11.45948643	     11.92357673	     10.86141483	      5.11289068	     -8.67480961	      0.94338221	     -2.37252501
      2.01000000	     84.24769815	      1.70839440	     -8.25043140	      0.38694904	     -0.77844484	      0.73114245	     -5.73490419	     10.79349227	     44.45970786	    -68.94281544	      1.92265562	    -11.57223907	     12.06944136	     11.25168914	      4.19650033	     -9.01286820	      1.22909621	     -2.30852149
      2.02000000	     84.18007706	      1.05145355	     -8.12679055	      0.39784174	     -0.77819508	      0.73009244	     -5.74357450	     10.28058502	     45.52790063	    -66.86158151	      1.99260678	    -11.58705243	     12.23971077	     11.65096076	      3.27075862	     -9.43643769	      1.58838304	     -2.22758150
      2.03000000	     84.11801706	      0.38048446	     -7.97093747	      0.40898927	     -0.77787716	      0.72891833	     -5.66833628	      9.77912420	     46.35303237	    -64.48169623	      1.95486080	    -11.45839804	     12.40837603	     12.00894393	      2.29591651	     -9.88049099	      1.99289904	     -2.12033874
      2.04000000	     84.10250389	     -0.30321746	     -7.77862609	      0.42043695	     -0.77747216	      0.72761396	     -5.55940623	      9.28471806	     46.90542197	    -61.81396318	      1.92550944	    -11.33536332	     12.51686162	     12.15794745	      1.32100055	    -10.42552043	      2.13079064	     -2.07725576
      2.05000000	     84.05305379	     -1.02750889	     -7.50753363	      0.43218299	     -0.77706942	      0.72615088	     -5.35304969	      8.89568148	     47.17361763	    -58.95171135	      1.52337202	    -10.69443422	     12.69445053	     12.56513676	      0.23071526	    -11.03546271	      2.88160168	     -1.86118614
      2.06000000	     84.06722622	     -1.72159014	     -7.30501101	      0.44430314	     -0.77658647	      0.72459579	     -5.12149832	      8.37357442	     47.23045684	    -55.86296101	      1.49043672	    -10.51794459	     12.76642051	     12.75493875	     -0.73717454	    -11.75661210	      2.96568891	     -1.80211557
      2.07000000	     84.03651244	     -2.37986740	     -6.84922675	      0.45682387	     -0.77617107	      0.72280098	     -4.75147283	      7.87640970	     46.83085469	    -52.74886126	      1.16380580	    -10.04223305	     12.96947620	     12.94505008	     -1.97202208	    -12.58426993	      3.26750057	     -1.69601932
      2.08000000	     84.11048569	     -3.09898050	     -6.47630358	      0.46974976	     -0.77565297	      0.72089494	     -4.51347652	      7.49228492	     46.31974144	    -49.60158839	      0.60573108	     -9.15498237	     13.00709551	     13.06482193	     -3.01932029	    -13.66129303	      3.85696429	     -1.35101877
      2.09000000	     84.21103276	     -3.74902665	     -5.97096611	      0.48309699	     -0.77515132	      0.71879887	     -4.21749620	      6.98285386	     45.48970791	    -46.58428049	      0.51290126	     -8.90851724	     13.03443986	     12.99184697	     -4.14179020	    -14.88813176	      3.92555598	     -1.27670200
      2.10000000	     84.38466009	     -4.36490734	     -5.41996966	      0.49683925	     -0.77465112	      0.71656390	     -3.99368737	      6.46598243	     44.49293320	    -43.79578101	      0.30543797	     -8.63683777	     12.97391857	     12.78609962	     -5.21864549	    -16.31708329	      3.99301198	     -1.21182478
      2.11000000	     84.64641364	     -4.93242938	     -4.84586529	      0.51093841	     -0.77414240	      0.71422227	     -3.87999068	      5.93198732	     43.40038117	    -41.34941971	      0.07384376	     -8.40994934	     12.78158170	     12.38015477	     -6.19840418	    -17.95460133	      4.00986074	     -1.13206542
      2.12000000	     85.02551216	     -5.42923148	     -4.28800925	      0.52534032	     -0.77362181	      0.71183976	     -3.92529463	      5.35916137	     42.29020511	    -39.32595481	     -0.10983081	     -8.27975519	     12.40455669	     11.75523266	     -7.02279266	    -19.78896034	      3.93597878	     -1.03921749
      2.13000000	     85.53886592	     -5.85527744	     -3.75890549	      0.53999246	     -0.77306590	      0.70948980	     -4.17124397	      4.77520477	     41.20864812	    -37.77912934	     -0.57364159	     -8.59710015	     11.79186041	     10.85898877	     -7.66023462	    -21.80706998	      3.62368075	     -0.33273882
      2.14000000	     86.20201036	     -6.18379310	     -3.33826695	      0.55480310	     -0.77245824	      0.70724143	     -4.63899570	      4.12206097	     40.25594707	    -36.74237125	     -0.51426750	     -8.67950613	     10.91685041	      9.74282585	     -8.02154568	    -23.98703687	      3.44079774	     -0.36797174
      2.15000000	     87.01574892	     -6.42392207	     -3.02540120	      0.56973194	     -0.77177229	      0.70520947	     -5.30452445	      3.36850138	     39.39608411	    -36.14448083	     -0.52150007	     -9.77289210	      9.76732929	      8.38231191	     -8.11478512	    -26.28378822	      2.58869861	      0.08984667
      2.16000000	     87.97074849	     -6.56766854	     -2.70777475	      0.58474272	     -0.77103299	      0.70338272	     -6.25071003	      2.73429812	     38.58761432	    -36.04704208	     -0.31624728	    -10.40336112	      8.38663635	      6.78724641	     -8.07326331	    -28.67308014	      1.74555731	      0.23875294
      2.17000000	     89.05668405	     -6.62423746	     -2.55711570	      0.59974234	     -0.77019659	      0.70188853	     -7.40233195	      2.06967046	     37.91957500	    -36.27935030	      0.00773427	    -11.12261488	      6.76906611	      5.00439026	     -7.70904033	    -31.14869708	      0.72128232	      0.32307815
      2.18000000	     90.23776441	     -6.60492371	     -2.48794217	      0.61470011	     -0.76926792	      0.70076368	     -8.73137392	      1.45944075	     37.28699879	    -36.75746608	      0.41381329	    -11.90144652	      5.00221685	      3.09125319	     -7.14548097	    -33.66060235	     -0.45205461	      0.30122859
      2.19000000	     91.47878831	     -6.49790882	     -2.48880347	      0.62955435	     -0.76828153	      0.70005716	    -10.17951926	      0.89859645	     36.63035322	    -37.34219223	      0.89498505	    -12.61708952	      3.15444646	      1.05834848	     -6.40659858	    -36.18286475	     -1.67877131	      0.16068562
      2.20000000	     92.74073536	     -6.32104265	     -2.57459165	      0.64425201	     -0.76724220	      0.69983371	    -11.68656068	      0.40403441	     35.92123224	    -37.89235534	      1.42945777	    -13.25729709	      1.30633823	     -1.01894766	     -5.49054473	    -38.68538979	     -2.94384394	     -0.13660383
      2.21000000	     93.98600392	     -6.08037357	     -2.73782831	      0.65873641	     -0.76617915	      0.70013928	    -13.18945711	     -0.01829643	     35.11613046	    -38.27937817	      1.98874532	    -13.76852244	     -0.46113795	     -3.08780155	     -4.41230259	    -41.13871963	     -4.18767161	     -0.61748225
      2.22000000	     95.16549222	     -5.78197166	     -3.00337659	      0.67294855	     -0.76511540	      0.70101992	    -14.60688166	     -0.39948075	     34.21032459	    -38.39304059	      2.54302255	    -14.09776837	     -2.05831374	     -5.10086475	     -3.14621778	    -43.51391896	     -5.35901361	     -1.31337525
